<svg width="145" height="32" viewBox="0 0 145 32" fill="none" xmlns="http://www.w3.org/2000/svg">
<path d="M52.409 17.1213H42.5377V22.3465H53.7877V26H38.3879V5.67831H53.2913V9.27666H42.5377V13.5919H52.409V17.1213ZM63.2169 15.1085C62.886 14.3824 62.238 14.0193 61.273 14.0193C60.1516 14.0193 59.398 14.3824 59.0119 15.1085C58.8005 15.5221 58.6948 16.1379 58.6948 16.9559V26H54.7105V11H58.5294V13.1921C59.0165 12.4108 59.4761 11.8548 59.9081 11.5239C60.6709 10.9357 61.659 10.6415 62.8722 10.6415C64.0211 10.6415 64.9494 10.8943 65.6572 11.3998C66.227 11.8686 66.659 12.4706 66.9531 13.2059C67.4678 12.3235 68.1066 11.6756 68.8695 11.262C69.6783 10.8483 70.579 10.6415 71.5717 10.6415C72.2334 10.6415 72.886 10.7702 73.5294 11.0276C74.1728 11.2849 74.7564 11.7353 75.2803 12.3787C75.7031 12.9026 75.988 13.546 76.1351 14.3088C76.227 14.8143 76.273 15.5542 76.273 16.5285L76.2454 26H72.2196V16.432C72.2196 15.8621 72.1277 15.3934 71.9439 15.0257C71.5946 14.3272 70.9513 13.9779 70.0138 13.9779C68.9292 13.9779 68.1801 14.4283 67.7665 15.329C67.5551 15.807 67.4494 16.3814 67.4494 17.0524V26H63.4926V17.0524C63.4926 16.1608 63.4007 15.5129 63.2169 15.1085ZM86.0606 26.3998C84.8198 26.3998 83.8226 26.1517 83.0689 25.6553C82.6185 25.3612 82.1314 24.8465 81.6075 24.1112V26H77.761V5.70588H81.6765V12.9301C82.1728 12.2316 82.7196 11.6985 83.3171 11.3309C84.0248 10.8713 84.9255 10.6415 86.0193 10.6415C87.9954 10.6415 89.5395 11.3539 90.6516 12.7785C91.773 14.2031 92.3336 16.0414 92.3336 18.2932C92.3336 20.6278 91.7821 22.5625 90.6792 24.0974C89.5763 25.6324 88.0367 26.3998 86.0606 26.3998ZM88.2114 18.7068C88.2114 17.6406 88.0735 16.7583 87.7978 16.0597C87.2739 14.7362 86.3088 14.0745 84.9026 14.0745C83.4779 14.0745 82.4991 14.7224 81.966 16.0184C81.6902 16.7077 81.5524 17.5993 81.5524 18.693C81.5524 19.9798 81.8373 21.046 82.4071 21.8915C82.977 22.7371 83.8456 23.1599 85.0128 23.1599C86.0239 23.1599 86.8097 22.7509 87.3704 21.9329C87.931 21.1149 88.2114 20.0395 88.2114 18.7068ZM100.715 14.5983C99.1342 14.5983 98.0726 15.1131 97.5303 16.1425C97.227 16.7215 97.0753 17.6131 97.0753 18.8171V26H93.1185V10.9724H96.8685V13.5919C97.4752 12.5901 98.0037 11.9053 98.454 11.5377C99.1893 10.9219 100.145 10.614 101.322 10.614C101.395 10.614 101.455 10.6186 101.501 10.6278C101.556 10.6278 101.671 10.6324 101.846 10.6415V14.6673C101.597 14.6397 101.377 14.6213 101.184 14.6121C100.991 14.6029 100.835 14.5983 100.715 14.5983ZM102.727 12.5993C103.766 11.2757 105.549 10.614 108.076 10.614C109.721 10.614 111.183 10.9403 112.46 11.5928C113.738 12.2454 114.377 13.477 114.377 15.2877V22.1811C114.377 22.659 114.386 23.2381 114.404 23.9182C114.432 24.4329 114.51 24.7822 114.639 24.966C114.767 25.1498 114.96 25.3015 115.218 25.421V26H110.944C110.824 25.6967 110.742 25.4118 110.696 25.1452C110.65 24.8787 110.613 24.5754 110.585 24.2353C110.043 24.8235 109.418 25.3244 108.71 25.7381C107.865 26.2252 106.909 26.4687 105.843 26.4687C104.483 26.4687 103.357 26.0827 102.465 25.3107C101.583 24.5294 101.142 23.4265 101.142 22.0018C101.142 20.1544 101.854 18.8171 103.278 17.9899C104.06 17.5395 105.209 17.2178 106.725 17.0248L108.062 16.8594C108.789 16.7675 109.308 16.6526 109.62 16.5147C110.181 16.2757 110.461 15.9035 110.461 15.398C110.461 14.7822 110.245 14.3594 109.813 14.1296C109.391 13.8906 108.766 13.7711 107.938 13.7711C107.01 13.7711 106.353 14.0009 105.967 14.4605C105.691 14.8006 105.507 15.2601 105.415 15.8392H101.624C101.707 14.5248 102.074 13.4449 102.727 12.5993ZM105.65 23.1599C106.017 23.4632 106.468 23.6149 107.001 23.6149C107.846 23.6149 108.623 23.3667 109.331 22.8704C110.048 22.3741 110.42 21.4688 110.448 20.1544V18.693C110.199 18.8493 109.947 18.9779 109.689 19.079C109.441 19.171 109.096 19.2583 108.655 19.341L107.773 19.5064C106.946 19.6535 106.353 19.8327 105.994 20.0441C105.388 20.4026 105.085 20.9586 105.085 21.7123C105.085 22.3833 105.273 22.8658 105.65 23.1599ZM128.88 16.3631H124.854C124.78 15.8024 124.592 15.2969 124.289 14.8465C123.847 14.2399 123.163 13.9366 122.234 13.9366C120.911 13.9366 120.005 14.5938 119.518 15.9081C119.261 16.6066 119.132 17.5349 119.132 18.693C119.132 19.796 119.261 20.6829 119.518 21.3539C119.987 22.6039 120.869 23.2289 122.165 23.2289C123.085 23.2289 123.737 22.9807 124.123 22.4844C124.509 21.9881 124.744 21.3447 124.826 20.5542H128.838C128.746 21.7491 128.314 22.8796 127.542 23.9458C126.311 25.6645 124.486 26.5239 122.069 26.5239C119.652 26.5239 117.873 25.807 116.733 24.3732C115.594 22.9393 115.024 21.0781 115.024 18.7895C115.024 16.2068 115.653 14.1985 116.913 12.7647C118.172 11.3309 119.909 10.614 122.124 10.614C124.008 10.614 125.548 11.0368 126.743 11.8824C127.947 12.7279 128.659 14.2215 128.88 16.3631ZM142.459 21.5882C142.358 22.4798 141.893 23.3851 141.066 24.3042C139.779 25.7656 137.978 26.4963 135.662 26.4963C133.75 26.4963 132.063 25.8805 130.602 24.6489C129.141 23.4173 128.41 21.4136 128.41 18.6379C128.41 16.0368 129.067 14.0423 130.381 12.6544C131.705 11.2665 133.419 10.5726 135.524 10.5726C136.774 10.5726 137.9 10.807 138.902 11.2757C139.903 11.7445 140.731 12.4844 141.383 13.4954C141.971 14.387 142.353 15.421 142.528 16.5974C142.629 17.2868 142.67 18.2794 142.652 19.5754H132.367C132.422 21.0827 132.895 22.1397 133.787 22.7463C134.329 23.1232 134.982 23.3116 135.744 23.3116C136.553 23.3116 137.21 23.0818 137.716 22.6222C137.992 22.3741 138.235 22.0294 138.447 21.5882H142.459ZM138.571 16.9835C138.506 15.9449 138.189 15.159 137.619 14.6259C137.059 14.0836 136.36 13.8125 135.524 13.8125C134.614 13.8125 133.906 14.0974 133.401 14.6673C132.904 15.2371 132.592 16.0092 132.463 16.9835H138.571Z" fill="black"/>
<circle cx="9.61304" cy="16.5" r="9.5" fill="#3461FF"/>
<path d="M34.6323 15.6362C35.2938 16.0221 35.2938 16.9779 34.6323 17.3638L19.6169 26.1227C18.9502 26.5116 18.113 26.0308 18.113 25.259L18.113 7.74104C18.113 6.96925 18.9503 6.48837 19.6169 6.87726L27.113 11.25L34.6323 15.6362Z" fill="#3461FF"/>
</svg>
